<?xml version="1.0" encoding="UTF-8"?>
<!DOCTYPE svg PUBLIC "-//W3C//DTD SVG 1.1//EN" "http://www.w3.org/Graphics/SVG/1.1/DTD/svg11.dtd">
<svg xmlns="http://www.w3.org/2000/svg" version="1.1" width="1337px" height="498px" style="shape-rendering:geometricPrecision; text-rendering:geometricPrecision; image-rendering:optimizeQuality; fill-rule:evenodd; clip-rule:evenodd" xmlns:xlink="http://www.w3.org/1999/xlink">
<g><path style="opacity:1" fill="#fefefe" d="M -0.5,-0.5 C 445.167,-0.5 890.833,-0.5 1336.5,-0.5C 1336.5,165.5 1336.5,331.5 1336.5,497.5C 890.833,497.5 445.167,497.5 -0.5,497.5C -0.5,331.5 -0.5,165.5 -0.5,-0.5 Z"/></g>
<g><path style="opacity:1" fill="#b74244" d="M 484.5,47.5 C 484.53,48.4972 484.03,49.1639 483,49.5C 475.626,52.5712 468.126,54.9045 460.5,56.5C 468.425,53.522 476.425,50.522 484.5,47.5 Z"/></g>
<g><path style="opacity:1" fill="#c1282c" d="M 215.5,296.5 C 213.046,296.679 210.879,296.013 209,294.5C 208.5,294.833 208,295.167 207.5,295.5C 208.5,296.167 209.5,296.833 210.5,297.5C 208.028,298.896 205.362,299.73 202.5,300C 201.177,300.816 200.511,301.983 200.5,303.5C 191.097,306.855 181.431,309.188 171.5,310.5C 162.143,310.832 152.81,310.498 143.5,309.5C 138.989,306.453 133.989,304.787 128.5,304.5C 112.44,293.387 106.773,278.387 111.5,259.5C 113.499,258.143 114.665,258.81 115,261.5C 115.66,258.953 115.493,256.453 114.5,254C 115.581,252.629 116.415,251.129 117,249.5C 117.528,253.699 118.361,257.699 119.5,261.5C 124.418,276.148 134.751,283.148 150.5,282.5C 161.084,282.104 171.417,280.271 181.5,277C 209.835,265.672 236.168,251.005 260.5,233C 315.136,191.051 366.803,145.384 415.5,96C 407.369,91.3654 399.369,86.532 391.5,81.5C 414.296,72.5684 437.296,64.235 460.5,56.5C 468.126,54.9045 475.626,52.5712 483,49.5C 484.03,49.1639 484.53,48.4972 484.5,47.5C 486.484,46.8443 488.484,46.1776 490.5,45.5C 491.167,45.8333 491.833,46.1667 492.5,46.5C 480.703,79.8909 468.703,113.224 456.5,146.5C 452.404,138.634 448.07,130.967 443.5,123.5C 392.555,173.298 338.222,218.798 280.5,260C 260.041,274.232 238.375,286.398 215.5,296.5 Z"/></g>
<g><path style="opacity:1" fill="#5aaac9" d="M 284.5,85.5 C 315.329,84.5018 346.329,84.1685 377.5,84.5C 377.802,87.0593 377.468,89.3926 376.5,91.5C 376.5,89.5 376.5,87.5 376.5,85.5C 345.833,85.5 315.167,85.5 284.5,85.5 Z"/></g>
<g><path style="opacity:1" fill="#0592ca" d="M 284.5,85.5 C 315.167,85.5 345.833,85.5 376.5,85.5C 376.5,87.5 376.5,89.5 376.5,91.5C 370.87,123.629 351.87,142.129 319.5,147C 289.017,142.487 261.684,149.487 237.5,168C 213.026,190.112 201.692,217.612 203.5,250.5C 187.143,259.63 169.643,264.964 151,266.5C 148.576,266.47 146.243,266.137 144,265.5C 135.667,195.007 161.5,141.174 221.5,104C 231.267,99.1163 241.267,94.783 251.5,91C 262.369,88.2996 273.369,86.4663 284.5,85.5 Z"/></g>
<g><path style="opacity:1" fill="#defdff" d="M 1157.5,140.5 C 1181.99,139.502 1206.66,139.169 1231.5,139.5C 1231.82,145.69 1231.49,151.69 1230.5,157.5C 1230.5,152.5 1230.5,147.5 1230.5,142.5C 1230.5,142.167 1230.5,141.833 1230.5,141.5C 1206.34,140.502 1182.01,140.169 1157.5,140.5 Z"/></g>
<g><path style="opacity:1" fill="#0d92c9" d="M 593.5,138.5 C 615.971,136.904 633.638,145.238 646.5,163.5C 641.049,166.389 635.383,169.056 629.5,171.5C 612.598,151.673 594.765,150.673 576,168.5C 563.234,189.534 566.734,207.367 586.5,222C 598.408,227.406 609.741,226.406 620.5,219C 623.375,215.956 626.375,213.123 629.5,210.5C 635.284,212.559 640.951,214.893 646.5,217.5C 633.387,236.942 615.054,245.109 591.5,242C 559.609,232.052 546.109,210.552 551,177.5C 557.827,156.362 571.994,143.362 593.5,138.5 Z"/></g>
<g><path style="opacity:1" fill="#e4fdfe" d="M 747.5,140.5 C 747.168,174.004 747.502,207.338 748.5,240.5C 748.833,240.5 749.167,240.5 749.5,240.5C 749.842,241.338 750.508,241.672 751.5,241.5C 745.739,241.767 739.739,242.1 733.5,242.5C 730.5,242.333 727.5,242.167 724.5,242C 723.584,241.722 722.918,241.222 722.5,240.5C 729.687,240.825 736.687,240.491 743.5,239.5C 744.5,239.5 745.5,239.5 746.5,239.5C 746.168,206.329 746.502,173.329 747.5,140.5 Z"/></g>
<g><path style="opacity:1" fill="#5cafd7" d="M 747.5,140.5 C 748.791,140.263 749.791,140.596 750.5,141.5C 748.507,174.15 747.84,207.15 748.5,240.5C 747.502,207.338 747.168,174.004 747.5,140.5 Z"/></g>
<g><path style="opacity:1" fill="#85d0e7" d="M 815.5,141.5 C 821.979,140.509 828.646,140.176 835.5,140.5C 835.832,174.004 835.498,207.338 834.5,240.5C 834.5,207.5 834.5,174.5 834.5,141.5C 828.167,141.5 821.833,141.5 815.5,141.5 Z"/></g>
<g><path style="opacity:1" fill="#dbfdfe" d="M 848.5,141.5 C 848.168,174.671 848.502,207.671 849.5,240.5C 855.5,240.5 861.5,240.5 867.5,240.5C 861.021,241.491 854.354,241.824 847.5,241.5C 847.168,207.996 847.502,174.662 848.5,141.5 Z"/></g>
<g><path style="opacity:1" fill="#60afcb" d="M 896.5,141.5 C 880.833,141.5 865.167,141.5 849.5,141.5C 849.5,174.5 849.5,207.5 849.5,240.5C 848.502,207.671 848.168,174.671 848.5,141.5C 864.5,140.167 880.5,140.167 896.5,141.5 Z"/></g>
<g><path style="opacity:1" fill="#0792ca" d="M 896.5,141.5 C 916.473,144.138 927.139,155.471 928.5,175.5C 927.224,197.443 915.557,209.11 893.5,210.5C 884.833,210.5 876.167,210.5 867.5,210.5C 867.5,220.5 867.5,230.5 867.5,240.5C 861.5,240.5 855.5,240.5 849.5,240.5C 849.5,207.5 849.5,174.5 849.5,141.5C 865.167,141.5 880.833,141.5 896.5,141.5 Z"/></g>
<g><path style="opacity:1" fill="#87c6dd" d="M 1157.5,140.5 C 1182.01,140.169 1206.34,140.502 1230.5,141.5C 1206.17,141.5 1181.83,141.5 1157.5,141.5C 1157.5,174.5 1157.5,207.5 1157.5,240.5C 1156.17,207.167 1156.17,173.833 1157.5,140.5 Z"/></g>
<g><path style="opacity:1" fill="#188ab8" d="M 1230.5,141.5 C 1230.5,141.833 1230.5,142.167 1230.5,142.5C 1206.59,142.172 1182.76,142.506 1159,143.5C 1158.5,175.498 1158.33,207.498 1158.5,239.5C 1182.17,239.5 1205.83,239.5 1229.5,239.5C 1229.5,234.167 1229.5,228.833 1229.5,223.5C 1229.83,223.5 1230.17,223.5 1230.5,223.5C 1230.5,229.167 1230.5,234.833 1230.5,240.5C 1206.17,240.5 1181.83,240.5 1157.5,240.5C 1157.5,207.5 1157.5,174.5 1157.5,141.5C 1181.83,141.5 1206.17,141.5 1230.5,141.5 Z"/></g>
<g><path style="opacity:1" fill="#0792ca" d="M 1230.5,142.5 C 1230.5,147.5 1230.5,152.5 1230.5,157.5C 1212.17,157.5 1193.83,157.5 1175.5,157.5C 1175.17,166.017 1175.51,174.35 1176.5,182.5C 1192.5,182.5 1208.5,182.5 1224.5,182.5C 1224.82,188.358 1224.49,194.025 1223.5,199.5C 1207.5,199.5 1191.5,199.5 1175.5,199.5C 1175.17,207.684 1175.51,215.684 1176.5,223.5C 1194.17,223.5 1211.83,223.5 1229.5,223.5C 1229.5,228.833 1229.5,234.167 1229.5,239.5C 1205.83,239.5 1182.17,239.5 1158.5,239.5C 1158.33,207.498 1158.5,175.498 1159,143.5C 1182.76,142.506 1206.59,142.172 1230.5,142.5 Z"/></g>
<g><path style="opacity:1" fill="#0892c9" d="M 750.5,141.5 C 771.804,161.301 793.304,180.967 815,200.5C 815.5,180.836 815.667,161.169 815.5,141.5C 821.833,141.5 828.167,141.5 834.5,141.5C 834.5,174.5 834.5,207.5 834.5,240.5C 833.078,240.291 831.745,239.791 830.5,239C 809.629,219.959 788.629,201.126 767.5,182.5C 766.501,201.09 766.168,220.424 766.5,240.5C 760.833,240.5 755.167,240.5 749.5,240.5C 749.167,240.5 748.833,240.5 748.5,240.5C 747.84,207.15 748.507,174.15 750.5,141.5 Z"/></g>
<g><path style="opacity:1" fill="#b0e6f8" d="M 1230.5,157.5 C 1212.67,158.497 1194.67,158.83 1176.5,158.5C 1176.5,166.5 1176.5,174.5 1176.5,182.5C 1175.51,174.35 1175.17,166.017 1175.5,157.5C 1193.83,157.5 1212.17,157.5 1230.5,157.5 Z"/></g>
<g><path style="opacity:1" fill="#fcfdfd" d="M 895.5,158.5 C 902.309,159.805 906.809,163.805 909,170.5C 911.045,178.497 909.212,185.331 903.5,191C 901.913,191.862 900.246,192.529 898.5,193C 888.506,193.5 878.506,193.666 868.5,193.5C 868.5,181.833 868.5,170.167 868.5,158.5C 877.5,158.5 886.5,158.5 895.5,158.5 Z"/></g>
<g><path style="opacity:1" fill="#a0daeb" d="M 895.5,158.5 C 886.5,158.5 877.5,158.5 868.5,158.5C 868.5,170.167 868.5,181.833 868.5,193.5C 867.505,181.678 867.172,169.678 867.5,157.5C 877.015,157.173 886.348,157.506 895.5,158.5 Z"/></g>
<g><path style="opacity:1" fill="#0f92c9" d="M 1096.5,138.5 C 1119.03,136.933 1136.69,145.266 1149.5,163.5C 1144.04,166.546 1138.37,169.212 1132.5,171.5C 1119.04,153.663 1103.04,150.83 1084.5,163C 1066.74,182.595 1067.4,201.595 1086.5,220C 1098.57,227.297 1110.57,227.297 1122.5,220C 1125.75,216.242 1129.42,213.075 1133.5,210.5C 1139.09,212.298 1144.43,214.631 1149.5,217.5C 1142.71,229.4 1132.71,237.233 1119.5,241C 1095.81,246.44 1076.65,239.607 1062,220.5C 1045.16,189.013 1051.66,163.513 1081.5,144C 1086.6,142.104 1091.6,140.27 1096.5,138.5 Z"/></g>
<g><path style="opacity:1" fill="#a9f4fe" d="M 767.5,182.5 C 767.5,202.167 767.5,221.833 767.5,241.5C 762.167,241.5 756.833,241.5 751.5,241.5C 750.508,241.672 749.842,241.338 749.5,240.5C 755.167,240.5 760.833,240.5 766.5,240.5C 766.168,220.424 766.501,201.09 767.5,182.5 Z"/></g>
<g><path style="opacity:1" fill="#73bad2" d="M 955.5,240.5 C 955.5,207.5 955.5,174.5 955.5,141.5C 949.5,141.5 943.5,141.5 937.5,141.5C 937.5,174.5 937.5,207.5 937.5,240.5C 936.502,207.338 936.168,174.004 936.5,140.5C 943.167,140.5 949.833,140.5 956.5,140.5C 956.832,174.004 956.498,207.338 955.5,240.5 Z"/></g>
<g><path style="opacity:1" fill="#0391c9" d="M 955.5,240.5 C 949.5,240.5 943.5,240.5 937.5,240.5C 937.5,207.5 937.5,174.5 937.5,141.5C 943.5,141.5 949.5,141.5 955.5,141.5C 955.5,174.5 955.5,207.5 955.5,240.5 Z"/></g>
<g><path style="opacity:1" fill="#0b92c9" d="M 743.5,239.5 C 736.687,240.491 729.687,240.825 722.5,240.5C 720.452,235.401 718.118,230.401 715.5,225.5C 699.5,224.167 683.5,224.167 667.5,225.5C 665.167,230.167 662.833,234.833 660.5,239.5C 653.524,240.664 646.524,240.831 639.5,240C 656.467,206.562 673.801,173.396 691.5,140.5C 709.131,173.432 726.464,206.432 743.5,239.5 Z"/></g>
<g><path style="opacity:1" fill="#f7fcfb" d="M 690.5,178.5 C 691.376,178.369 692.043,178.702 692.5,179.5C 696.705,188.743 701.038,197.909 705.5,207C 696.167,207.667 686.833,207.667 677.5,207C 681.746,197.416 686.079,187.916 690.5,178.5 Z"/></g>
<g><path style="opacity:1" fill="#b6e5f7" d="M 1223.5,199.5 C 1208.01,200.496 1192.34,200.83 1176.5,200.5C 1176.5,208.167 1176.5,215.833 1176.5,223.5C 1175.51,215.684 1175.17,207.684 1175.5,199.5C 1191.5,199.5 1207.5,199.5 1223.5,199.5 Z"/></g>
<g><path style="opacity:1" fill="#0392ca" d="M 446.5,389.5 C 442.456,389.844 438.456,390.51 434.5,391.5C 430.21,391.146 426.21,389.98 422.5,388C 427.293,387.976 431.626,386.643 435.5,384C 434.833,383.833 434.167,383.667 433.5,383.5C 427.616,385.157 421.616,385.824 415.5,385.5C 415.5,368.833 415.5,352.167 415.5,335.5C 411.154,335.666 406.821,335.499 402.5,335C 410.186,334.627 417.852,334.627 425.5,335C 423.026,334.963 421.026,334.13 419.5,332.5C 441.582,327.894 451.749,314.228 450,291.5C 443.497,272.012 429.997,263.512 409.5,266C 397.917,269.249 389.75,276.415 385,287.5C 383.566,302.442 383.066,317.442 383.5,332.5C 384.806,349.846 384.806,367.179 383.5,384.5C 384.007,387.422 385.007,390.089 386.5,392.5C 384.123,392.784 381.956,392.784 380,392.5C 374.995,397.054 375.495,399.388 381.5,399.5C 380.441,404.991 380.441,410.325 381.5,415.5C 377.567,436.201 366.233,451.368 347.5,461C 341.42,463.639 335.087,465.139 328.5,465.5C 326.278,465.822 324.444,465.155 323,463.5C 322.667,440.167 322.333,416.833 322,393.5C 321.764,391.881 320.931,390.881 319.5,390.5C 319.18,371.091 319.513,351.757 320.5,332.5C 321.495,319.677 321.829,306.677 321.5,293.5C 324.507,255.992 342.841,228.826 376.5,212C 422.703,194.509 461.87,204.342 494,241.5C 514.737,271.938 518.07,304.271 504,338.5C 495.367,356.13 482.867,370.296 466.5,381C 460.199,384.711 453.533,387.544 446.5,389.5 Z"/></g>
<g><path style="opacity:1" fill="#a0dceb" d="M 893.5,210.5 C 885.35,211.493 877.017,211.826 868.5,211.5C 868.827,221.348 868.494,231.014 867.5,240.5C 867.5,230.5 867.5,220.5 867.5,210.5C 876.167,210.5 884.833,210.5 893.5,210.5 Z"/></g>
<g><path style="opacity:1" fill="#0d92ca" d="M 999.5,138.5 C 1012.97,137.094 1025.64,139.594 1037.5,146C 1040.24,147.362 1042.57,149.196 1044.5,151.5C 1041.17,156.167 1037.83,160.833 1034.5,165.5C 1026.1,160.048 1016.93,156.715 1007,155.5C 999.465,155.601 993.465,158.601 989,164.5C 988.223,170.402 990.723,174.235 996.5,176C 1005.01,178.627 1013.68,180.627 1022.5,182C 1048.17,189.168 1055.67,205.001 1045,229.5C 1039.06,236.391 1031.56,240.557 1022.5,242C 1002.49,244.832 984.491,240.165 968.5,228C 972.057,223.038 975.723,218.205 979.5,213.5C 986.609,218.388 994.276,222.221 1002.5,225C 1010.53,226.356 1018.2,225.356 1025.5,222C 1031.53,216.519 1031.86,210.853 1026.5,205C 1021.67,202.874 1016.67,201.207 1011.5,200C 997.489,199.631 985.322,194.797 975,185.5C 966.279,170.874 968.113,157.707 980.5,146C 986.509,142.316 992.842,139.816 999.5,138.5 Z"/></g>
<g><path style="opacity:1" fill="#b1f2fe" d="M 1230.5,223.5 C 1231.49,229.31 1231.82,235.31 1231.5,241.5C 1206.66,241.831 1181.99,241.498 1157.5,240.5C 1181.83,240.5 1206.17,240.5 1230.5,240.5C 1230.5,234.833 1230.5,229.167 1230.5,223.5 Z"/></g>
<g><path style="opacity:1" fill="#ba393d" d="M 119.5,261.5 C 118.361,257.699 117.528,253.699 117,249.5C 116.415,251.129 115.581,252.629 114.5,254C 115.493,256.453 115.66,258.953 115,261.5C 114.665,258.81 113.499,258.143 111.5,259.5C 113.324,252.854 116.491,246.854 121,241.5C 119.732,248.003 119.232,254.67 119.5,261.5 Z"/></g>
<g><path style="opacity:1" fill="#333332" d="M 988.5,261.5 C 992.546,261.15 996.38,261.817 1000,263.5C 1000.33,267.5 1000.67,271.5 1001,275.5C 1001.5,276 1002,276.5 1002.5,277C 1015.83,277.333 1029.17,277.667 1042.5,278C 1043.88,280.54 1043.21,282.54 1040.5,284C 1038.75,284.471 1037.09,285.138 1035.5,286C 1023.85,287.204 1012.18,288.204 1000.5,289C 1000,289.5 999.5,290 999,290.5C 994.203,311.031 993.37,331.698 996.5,352.5C 996.61,354.374 995.944,355.874 994.5,357C 988.137,358.401 984.303,355.901 983,349.5C 982.474,330.494 982.641,311.494 983.5,292.5C 971.274,294.789 967.274,290.289 971.5,279C 975.167,278.667 978.833,278.333 982.5,278C 983.416,277.626 984.25,277.126 985,276.5C 985.925,271.405 987.091,266.405 988.5,261.5 Z"/></g>
<g><path style="opacity:1" fill="#333333" d="M 1013.5,256.5 C 1023.38,255.313 1026.21,259.313 1022,268.5C 1020,270.747 1017.5,271.747 1014.5,271.5C 1014.66,266.453 1014.33,261.453 1013.5,256.5 Z"/></g>
<g><path style="opacity:1" fill="#fcfefd" d="M 419.5,332.5 C 407.5,332.5 395.5,332.5 383.5,332.5C 383.066,317.442 383.566,302.442 385,287.5C 389.75,276.415 397.917,269.249 409.5,266C 429.997,263.512 443.497,272.012 450,291.5C 451.749,314.228 441.582,327.894 419.5,332.5 Z"/></g>
<g><path style="opacity:1" fill="#333331" d="M 659.5,335.5 C 655.314,343.641 657.314,345.974 665.5,342.5C 682.722,336.389 699.055,328.389 714.5,318.5C 715.624,322 715.124,325.333 713,328.5C 702.746,338.76 690.913,346.594 677.5,352C 661.821,354.654 651.321,348.488 646,333.5C 645.1,324.666 646.767,316.333 651,308.5C 658.445,293.772 668.611,281.272 681.5,271C 701.231,271.064 710.065,280.897 708,300.5C 706.951,301.517 705.784,301.684 704.5,301C 703.333,299.833 702.167,298.667 701,297.5C 699.219,292.407 697.719,287.24 696.5,282C 693.983,281.743 691.65,282.41 689.5,284C 673.673,297.827 663.673,314.993 659.5,335.5 Z"/></g>
<g><path style="opacity:1" fill="#b6393d" d="M 215.5,296.5 C 210.658,299.011 205.658,301.344 200.5,303.5C 200.511,301.983 201.177,300.816 202.5,300C 205.362,299.73 208.028,298.896 210.5,297.5C 209.5,296.833 208.5,296.167 207.5,295.5C 208,295.167 208.5,294.833 209,294.5C 210.879,296.013 213.046,296.679 215.5,296.5 Z"/></g>
<g><path style="opacity:1" fill="#343433" d="M 913.5,297.5 C 918.384,296.861 922.217,298.527 925,302.5C 925.273,316.506 924.939,330.506 924,344.5C 920.742,345.555 918.076,344.555 916,341.5C 914.466,336.017 912.633,330.684 910.5,325.5C 907.031,331.467 903.364,337.3 899.5,343C 891.713,346.386 885.213,344.552 880,337.5C 878.803,334.911 877.803,332.244 877,329.5C 876.006,319.371 876.673,309.371 879,299.5C 883.04,297.847 886.373,298.847 889,302.5C 889.333,313.167 889.667,323.833 890,334.5C 891.333,335.833 892.667,335.833 894,334.5C 896.917,330.334 899.584,326.001 902,321.5C 905.372,313.182 909.206,305.182 913.5,297.5 Z"/></g>
<g><path style="opacity:1" fill="#333332" d="M 764.5,293.5 C 773.356,292.035 778.023,295.702 778.5,304.5C 777.612,310.154 777.445,315.82 778,321.5C 778.414,321.957 778.914,322.291 779.5,322.5C 783.432,315.482 787.765,308.649 792.5,302C 800.746,297.574 807.58,299.074 813,306.5C 813.894,315.898 815.228,325.232 817,334.5C 818.337,336.004 820.004,337.004 822,337.5C 822.49,338.793 822.657,340.127 822.5,341.5C 807.346,340.944 800.18,332.944 801,317.5C 800.612,316.572 799.945,315.905 799,315.5C 797.056,316.439 795.389,317.773 794,319.5C 788.221,328.558 783.388,338.058 779.5,348C 774.49,349.125 769.823,348.458 765.5,346C 763.092,338.912 762.092,331.578 762.5,324C 762.72,313.746 763.387,303.58 764.5,293.5 Z"/></g>
<g><path style="opacity:1" fill="#333332" d="M 1036.5,293.5 C 1045.36,292.035 1050.02,295.702 1050.5,304.5C 1049.61,310.154 1049.45,315.82 1050,321.5C 1050.41,321.957 1050.91,322.291 1051.5,322.5C 1055.43,315.482 1059.77,308.649 1064.5,302C 1071.65,298.09 1078.15,298.923 1084,304.5C 1085.09,307.044 1085.76,309.711 1086,312.5C 1086.38,320.858 1087.04,329.191 1088,337.5C 1088.49,340.639 1089.65,343.472 1091.5,346C 1091.14,347.885 1089.97,348.719 1088,348.5C 1081.17,347.259 1076.17,343.592 1073,337.5C 1072.5,330.174 1072.33,322.841 1072.5,315.5C 1070.1,315.393 1068.26,316.393 1067,318.5C 1061.48,328.041 1056.65,337.875 1052.5,348C 1047.71,348.879 1043.05,348.545 1038.5,347C 1037.11,345.829 1036.27,344.329 1036,342.5C 1034.16,326.108 1034.32,309.775 1036.5,293.5 Z"/></g>
<g><path style="opacity:1" fill="#333331" d="M 860.5,333.5 C 861.043,333.44 861.376,333.107 861.5,332.5C 854.197,331.503 846.863,331.169 839.5,331.5C 829.018,328.852 824.184,322.185 825,311.5C 831.479,301.007 840.646,294.007 852.5,290.5C 855.83,290.912 858.83,292.078 861.5,294C 863.332,295.489 864.165,297.322 864,299.5C 851.888,301.569 842.555,307.902 836,318.5C 835.333,319.833 835.333,321.167 836,322.5C 844.83,323.074 853.663,323.907 862.5,325C 873.648,328.62 875.315,334.62 867.5,343C 858.549,349.539 848.549,352.872 837.5,353C 834.343,352.258 831.677,350.758 829.5,348.5C 840.827,345.335 851.16,340.335 860.5,333.5 Z"/></g>
<g><path style="opacity:1" fill="#343433" d="M 1012.5,294.5 C 1015.19,294.336 1017.85,294.503 1020.5,295C 1022.33,295.5 1023.5,296.667 1024,298.5C 1024.46,315.171 1024.29,331.838 1023.5,348.5C 1017.44,348.723 1013.27,346.056 1011,340.5C 1010.1,325.063 1010.6,309.729 1012.5,294.5 Z"/></g>
<g><path style="opacity:1" fill="#333331" d="M 1114.5,293.5 C 1119.55,293.45 1124.55,293.95 1129.5,295C 1132.92,296.751 1135.25,299.418 1136.5,303C 1139.55,303.606 1142.05,305.106 1144,307.5C 1150.3,329.581 1149.97,351.581 1143,373.5C 1139.68,381.146 1135.18,387.979 1129.5,394C 1120.1,397.787 1111.6,396.287 1104,389.5C 1099.69,380.355 1099.35,371.022 1103,361.5C 1103.42,360.044 1104.26,359.544 1105.5,360C 1107.53,369.487 1109.7,378.987 1112,388.5C 1112.69,389.357 1113.52,390.023 1114.5,390.5C 1125.1,380.907 1131.27,368.907 1133,354.5C 1134.31,344.862 1134.65,335.196 1134,325.5C 1133.33,324.167 1132.67,324.167 1132,325.5C 1128.67,331.5 1125.33,337.5 1122,343.5C 1116.22,349.164 1109.72,349.997 1102.5,346C 1097.86,343.385 1095.52,339.385 1095.5,334C 1097.96,318.583 1104.29,305.083 1114.5,293.5 Z"/></g>
<g><path style="opacity:1" fill="#323231" d="M 940.5,262.5 C 943.85,262.335 947.183,262.502 950.5,263C 951.931,263.465 953.097,264.299 954,265.5C 954.667,270.5 954.667,275.5 954,280.5C 950.614,298.022 949.281,315.689 950,333.5C 950.534,337.305 951.534,340.971 953,344.5C 953.561,345.022 954.228,345.355 955,345.5C 962.065,341.108 968.565,335.941 974.5,330C 974.833,329.833 975.167,329.667 975.5,329.5C 975.679,338.936 971.345,345.77 962.5,350C 947.037,352.176 938.203,345.676 936,330.5C 935.833,325.667 935.667,320.833 935.5,316C 936.709,298.121 938.376,280.288 940.5,262.5 Z"/></g>
<g><path style="opacity:1" fill="#f2f2f0" d="M 1123.5,303.5 C 1124.5,303.5 1125.5,303.5 1126.5,303.5C 1123.57,314.967 1118.9,325.634 1112.5,335.5C 1111.68,336.386 1110.68,336.719 1109.5,336.5C 1111.72,324.401 1116.39,313.401 1123.5,303.5 Z"/></g>
<g><path style="opacity:1" fill="#bc4548" d="M 128.5,304.5 C 133.989,304.787 138.989,306.453 143.5,309.5C 152.81,310.498 162.143,310.832 171.5,310.5C 158.703,313.717 146.036,312.884 133.5,308C 131.654,306.97 129.987,305.804 128.5,304.5 Z"/></g>
<g><path style="opacity:1" fill="#0592ca" d="M 271.5,328.5 C 276.523,330.657 281.857,331.99 287.5,332.5C 290.028,333.166 292.694,333.832 295.5,334.5C 293.7,350.666 292.867,366.999 293,383.5C 292.166,319.51 290.999,319.51 289.5,383.5C 288.167,319.514 287.5,319.514 287.5,383.5C 286.448,383.351 285.448,383.517 284.5,384C 288.123,385.603 291.789,386.936 295.5,388C 293.017,388.287 290.35,388.954 287.5,390C 293.064,390.249 298.398,391.082 303.5,392.5C 293.5,392.5 283.5,392.5 273.5,392.5C 269.426,392.218 265.426,391.552 261.5,390.5C 222.416,380.8 191.416,359.467 168.5,326.5C 190.392,322.592 211.226,315.592 231,305.5C 242.501,316.668 256.001,324.334 271.5,328.5 Z"/></g>
<g><path style="opacity:1" fill="#333332" d="M 729.5,295.5 C 736.576,295.712 743.576,296.545 750.5,298C 756.004,304.528 757.837,312.028 756,320.5C 754.332,327.501 751.332,333.834 747,339.5C 741.542,344.102 735.709,344.602 729.5,341C 719.886,335.58 716.719,327.413 720,316.5C 720.799,310.102 722.799,304.102 726,298.5C 727.145,297.364 728.312,296.364 729.5,295.5 Z"/></g>
<g><path style="opacity:1" fill="#f7f7f6" d="M 740.5,300.5 C 743.238,299.965 745.072,300.965 746,303.5C 747.347,314.962 744.513,325.296 737.5,334.5C 736.311,335.429 734.978,335.762 733.5,335.5C 732.989,326.032 733.822,316.699 736,307.5C 737.012,304.798 738.512,302.465 740.5,300.5 Z"/></g>
<g><path style="opacity:1" fill="#cbf3fc" d="M 321.5,293.5 C 321.829,306.677 321.495,319.677 320.5,332.5C 309.5,332.5 298.5,332.5 287.5,332.5C 281.857,331.99 276.523,330.657 271.5,328.5C 287.373,331.33 303.373,332.163 319.5,331C 320.158,318.402 320.824,305.902 321.5,293.5 Z"/></g>
<g><path style="opacity:1" fill="#bbbbbb" d="M 839.5,331.5 C 846.863,331.169 854.197,331.503 861.5,332.5C 861.376,333.107 861.043,333.44 860.5,333.5C 853.5,332.833 846.5,332.167 839.5,331.5 Z"/></g>
<g><path style="opacity:1" fill="#0888c0" d="M 287.5,332.5 C 298.5,332.5 309.5,332.5 320.5,332.5C 319.513,351.757 319.18,371.091 319.5,390.5C 314.604,392.446 309.271,393.113 303.5,392.5C 298.398,391.082 293.064,390.249 287.5,390C 290.35,388.954 293.017,388.287 295.5,388C 291.789,386.936 288.123,385.603 284.5,384C 285.448,383.517 286.448,383.351 287.5,383.5C 287.5,319.514 288.167,319.514 289.5,383.5C 290.999,319.51 292.166,319.51 293,383.5C 292.867,366.999 293.7,350.666 295.5,334.5C 292.694,333.832 290.028,333.166 287.5,332.5 Z"/></g>
<g><path style="opacity:1" fill="#078ac2" d="M 383.5,332.5 C 395.5,332.5 407.5,332.5 419.5,332.5C 421.026,334.13 423.026,334.963 425.5,335C 417.852,334.627 410.186,334.627 402.5,335C 406.821,335.499 411.154,335.666 415.5,335.5C 415.5,352.167 415.5,368.833 415.5,385.5C 415.5,387.167 415.5,388.833 415.5,390.5C 418.247,390.187 420.914,390.52 423.5,391.5C 422.148,392.896 420.481,393.563 418.5,393.5C 407.859,392.57 397.192,392.237 386.5,392.5C 385.007,390.089 384.007,387.422 383.5,384.5C 384.806,367.179 384.806,349.846 383.5,332.5 Z"/></g>
<g><path style="opacity:1" fill="#646464" d="M 659.5,335.5 C 659.5,337.833 659.5,340.167 659.5,342.5C 661.5,342.5 663.5,342.5 665.5,342.5C 657.314,345.974 655.314,343.641 659.5,335.5 Z"/></g>
<g><path style="opacity:1" fill="#1a91c0" d="M 446.5,389.5 C 440.179,391.95 433.512,393.45 426.5,394C 412.171,394.5 397.837,394.667 383.5,394.5C 383.95,401.666 383.283,408.666 381.5,415.5C 380.441,410.325 380.441,404.991 381.5,399.5C 375.495,399.388 374.995,397.054 380,392.5C 381.956,392.784 384.123,392.784 386.5,392.5C 397.192,392.237 407.859,392.57 418.5,393.5C 420.481,393.563 422.148,392.896 423.5,391.5C 420.914,390.52 418.247,390.187 415.5,390.5C 415.5,388.833 415.5,387.167 415.5,385.5C 421.616,385.824 427.616,385.157 433.5,383.5C 434.167,383.667 434.833,383.833 435.5,384C 431.626,386.643 427.293,387.976 422.5,388C 426.21,389.98 430.21,391.146 434.5,391.5C 438.456,390.51 442.456,389.844 446.5,389.5 Z"/></g>
<g><path style="opacity:1" fill="#cef3fc" d="M 261.5,390.5 C 265.426,391.552 269.426,392.218 273.5,392.5C 289.299,394.222 305.299,394.888 321.5,394.5C 321.5,418.5 321.5,442.5 321.5,466.5C 320.668,443.337 320.168,420.004 320,396.5C 303.887,395.787 287.72,394.954 271.5,394C 268.529,393.206 265.529,392.539 262.5,392C 261.944,391.617 261.611,391.117 261.5,390.5 Z"/></g>
<g><path style="opacity:1" fill="#1c8bb6" d="M 319.5,390.5 C 320.931,390.881 321.764,391.881 322,393.5C 322.333,416.833 322.667,440.167 323,463.5C 324.444,465.155 326.278,465.822 328.5,465.5C 326.393,466.468 324.059,466.802 321.5,466.5C 321.5,442.5 321.5,418.5 321.5,394.5C 305.299,394.888 289.299,394.222 273.5,392.5C 283.5,392.5 293.5,392.5 303.5,392.5C 309.271,393.113 314.604,392.446 319.5,390.5 Z"/></g>
</svg>
